<svg width="41" height="39" viewBox="0 0 41 39" fill="none" xmlns="http://www.w3.org/2000/svg">
<path fill-rule="evenodd" clip-rule="evenodd" d="M13.0664 0.226174C11.8769 0.710228 11.068 2.78638 11.2029 5.01074C11.4602 9.26651 14.5102 10.5033 15.875 6.9052C16.6903 4.75655 16.1672 1.76528 14.7691 0.580153C14.0388 -0.0390233 13.8268 -0.0830699 13.0664 0.226174ZM15.9426 0.0575581C15.9431 0.0889871 16.1925 0.609058 16.4967 1.21286C17.5154 3.23557 17.4709 6.07106 16.389 8.10478C16.143 8.56727 15.9417 8.99741 15.9417 9.06096C15.9417 9.1245 16.8586 9.17658 17.9792 9.17658H20.0165L20.8414 7.92492C22.4906 5.42184 24.3944 4.27043 26.9109 4.25414C28.2233 4.24565 28.5118 4.32205 29.0395 4.8178C29.8224 5.55329 30.5038 6.89648 30.709 8.10845L30.8702 9.06187L34.3941 9.13161C38.816 9.21925 39.4024 9.06784 40.2469 7.6205C40.8041 6.66546 40.8781 6.30919 40.8756 4.58839C40.8733 3.01097 40.7752 2.45305 40.3609 1.66824C39.4516 -0.0555407 39.8914 0.000205736 27.2258 0.000205736C21.0195 0.000205736 15.9422 0.026129 15.9426 0.0575581ZM1.26875 5.81757C-0.438103 7.64068 -0.419429 11.5473 1.3045 13.3601L1.90753 13.9942H6.07798H10.2484V13.4615C10.2484 12.5874 10.9013 10.9254 11.5003 10.2745L12.0603 9.66637L11.2741 8.48973C10.7688 7.73337 10.4349 6.90841 10.3388 6.18026L10.1897 5.04721H6.08983H1.98997L1.26875 5.81757ZM25.9972 5.73521C23.7169 8.03229 24.6691 13.9942 27.316 13.9942C28.6421 13.9942 29.8211 12.0018 29.827 9.7501C29.8322 7.85679 29.4651 6.69506 28.5802 5.80357C27.6326 4.849 26.8963 4.8295 25.9972 5.73521ZM23.0829 6.73842C22.4744 7.29015 21.7484 8.15135 21.4697 8.65238L20.963 9.56313L21.6022 10.5744C22.6457 12.2243 24.9934 14.1293 24.4739 12.9045C24.1225 12.0756 23.6846 10.1986 23.6846 9.52069C23.6846 8.84279 24.1225 6.96576 24.4739 6.13691C24.7609 5.46061 24.2476 5.68268 23.0829 6.73842ZM12.6754 10.3539C12.4445 10.4893 12.0099 11.1311 11.7098 11.7808C11.1024 13.0949 10.9815 15.06 11.4119 16.6216C11.685 17.6122 12.9411 19.0412 13.5392 19.0412C15.0329 19.0412 16.2143 17.1621 16.2567 14.7189C16.3136 11.453 14.5236 9.27155 12.6754 10.3539ZM16.5741 11.4133C17.0738 12.4984 17.1808 13.058 17.1783 14.5677C17.1751 16.3325 17.0487 16.7907 15.9914 18.8691C15.9431 18.9636 16.8627 19.0412 18.0344 19.0412H20.165L20.5929 18.2408C21.1634 17.1736 22.8771 15.4459 23.878 14.9286L24.685 14.5115L23.9435 14.1252C22.8413 13.551 21.4578 12.213 20.8038 11.0885L20.2254 10.0942H18.0961H15.967L16.5741 11.4133ZM30.7443 10.6388C30.7443 11.5154 30.0898 13.136 29.4745 13.7831L28.9054 14.3814L29.7049 15.5782C30.2228 16.3534 30.5571 17.1747 30.6539 17.9081L30.803 19.0412H34.9029H39.0028L39.7383 18.2555C41.3867 16.495 41.427 12.7375 39.8176 10.891L39.1232 10.0942H34.9336H30.7443V10.6388ZM1.7668 15.2688C0.664118 15.8765 0.119839 17.2752 0.119839 19.5C0.119839 21.0809 0.216625 21.6335 0.63178 22.4202C1.45298 23.9769 1.9171 24.1091 6.31323 24.0363L10.1223 23.9735L10.2844 23.0159C10.4714 21.9113 11.0091 20.7567 11.6811 20.0162L12.1498 19.5L11.6811 18.9838C11.0091 18.2433 10.4714 17.0887 10.2844 15.9841L10.1223 15.0265L6.25698 14.9754C3.17645 14.9348 2.26484 14.9944 1.7668 15.2688ZM26.8729 15.0768C25.6085 15.5367 24.7547 17.2639 24.7433 19.3853C24.7242 23.0024 27.0268 25.2219 28.7018 23.2006C30.2267 21.361 30.2349 17.5927 28.7179 15.8549C28.096 15.1421 27.4463 14.8682 26.8729 15.0768ZM23.5266 16.2899C23.0187 16.6659 22.218 17.5372 21.7471 18.2261L20.8908 19.4787L21.638 20.6516C22.2961 21.6849 24.3015 23.5433 24.5204 23.3226C24.565 23.2777 24.4263 22.8379 24.2123 22.3456C23.6791 21.1183 23.6791 17.8817 24.2123 16.6544C24.4263 16.1621 24.5673 15.7246 24.5256 15.6824C24.4837 15.6404 24.0342 15.9136 23.5266 16.2899ZM12.4126 20.7152C11.5287 21.6055 11.1616 22.7652 11.1628 24.6617C11.1639 26.224 11.9507 28.2435 12.7196 28.658C14.5446 29.642 16.3022 27.5465 16.264 24.4323C16.2426 22.6709 15.8541 21.5117 14.9955 20.6468C14.0964 19.7411 13.3602 19.7606 12.4126 20.7152ZM15.9914 20.1309C17.0487 22.2093 17.1751 22.6675 17.1783 24.4323C17.1808 25.942 17.0738 26.5016 16.5741 27.5867L15.967 28.9058H18.112H20.257L20.6237 28.1914C21.1855 27.0971 22.7637 25.4791 23.7775 24.9581L24.688 24.4901L23.8795 24.0721C22.8773 23.5541 21.1638 21.8269 20.5929 20.7592L20.165 19.9588H18.0344C16.8627 19.9588 15.9431 20.0364 15.9914 20.1309ZM30.6539 21.0919C30.5571 21.8253 30.2228 22.6466 29.7049 23.4218L28.9054 24.6186L29.4745 25.2169C30.0898 25.864 30.7443 27.4846 30.7443 28.3612V28.9058H34.9147H39.0852L39.6882 28.2717C41.3901 26.4823 41.4165 22.5369 39.7383 20.7445L39.0028 19.9588H34.9029H30.803L30.6539 21.0919ZM1.3045 25.6399C-0.419429 27.4527 -0.438103 31.3593 1.26875 33.1824L1.98997 33.9528H6.08983H10.1897L10.3388 32.8197C10.4349 32.0916 10.7688 31.2666 11.2741 30.5103L12.0603 29.3336L11.5003 28.7255C10.9013 28.0746 10.2484 26.4126 10.2484 25.5385V25.0058H6.07798H1.90753L1.3045 25.6399ZM26.1243 25.4672C24.8909 26.4445 24.3229 29.6626 25.0216 31.7163C25.4026 32.8369 26.5169 33.9528 27.2548 33.9528C28.0329 33.9528 29.2681 32.6679 29.5808 31.5332C30.65 27.6541 28.3839 23.6769 26.1243 25.4672ZM23.1916 26.5543C22.6691 27.0276 21.9541 27.8695 21.6022 28.4256L20.963 29.4369L21.4697 30.3476C21.9828 31.2694 23.9984 33.2646 24.4168 33.2646C24.5466 33.2646 24.5712 33.092 24.4739 32.8631C24.1225 32.0342 23.6846 30.1572 23.6846 29.4793C23.6846 28.8014 24.1225 26.9244 24.4739 26.0955C24.7543 25.4348 24.2143 25.628 23.1916 26.5543ZM12.8484 30.2577C11.9138 30.8303 11.3195 32.1462 11.2017 33.9044C11.0844 35.6552 11.4593 37.1175 12.2652 38.0553C13.1258 39.0562 13.8819 39.1718 14.7507 38.4354C17.082 36.4593 16.5794 30.7489 14.0053 29.967C13.7412 29.8867 13.2538 30.0092 12.8484 30.2577ZM15.9417 29.9193C15.9417 29.9721 16.2177 30.5656 16.5552 31.2384C17.0758 32.2765 17.1694 32.7566 17.1742 34.4116C17.1797 36.315 17.0799 36.6883 15.9914 38.8277C15.9431 38.9223 20.9901 38.9998 27.2067 38.9998C39.8934 38.9998 39.4514 39.0558 40.3609 37.3318C40.7752 36.547 40.8733 35.989 40.8756 34.4116C40.8781 32.7014 40.8025 32.3316 40.2607 31.4034C39.9121 30.8057 39.3648 30.229 39.0039 30.0783C38.5826 29.9026 37.0855 29.8331 34.6173 29.8748L30.8702 29.9381L30.709 30.8916C30.5038 32.1035 29.8224 33.4467 29.0395 34.1822C28.5118 34.678 28.2233 34.7543 26.9109 34.7459C24.3944 34.7296 22.4906 33.5782 20.8414 31.0751L20.0165 29.8234H17.9792C16.8586 29.8234 15.9417 29.8665 15.9417 29.9193Z" fill="#CC6B0B"/>
</svg>
