<svg width="20" height="22" viewBox="0 0 20 22" fill="none" xmlns="http://www.w3.org/2000/svg">
<path d="M3.06107 20.0451L3.50191 19.4383L3.06107 20.0451ZM1.95491 18.9389L2.56168 18.4981L1.95491 18.9389ZM18.0451 18.9389L17.4383 18.4981L18.0451 18.9389ZM16.9389 20.0451L17.3798 20.6518L16.9389 20.0451ZM16.9389 3.95492L17.3798 3.34815L16.9389 3.95492ZM18.0451 5.06107L17.4383 5.50191L18.0451 5.06107ZM3.06107 3.95492L3.50191 4.56168H3.50191L3.06107 3.95492ZM1.95491 5.06107L2.56168 5.50191L1.95491 5.06107ZM17.2178 15.0616L17.1005 14.3208H17.1005L17.2178 15.0616ZM13.0616 19.2178L12.3208 19.1005V19.1005L13.0616 19.2178ZM12.25 4C12.25 4.41421 12.5858 4.75 13 4.75C13.4142 4.75 13.75 4.41421 13.75 4H12.25ZM13.75 1C13.75 0.585786 13.4142 0.25 13 0.25C12.5858 0.25 12.25 0.585786 12.25 1H13.75ZM6.25 4C6.25 4.41421 6.58579 4.75 7 4.75C7.41421 4.75 7.75 4.41421 7.75 4H6.25ZM7.75 1C7.75 0.585786 7.41421 0.25 7 0.25C6.58579 0.25 6.25 0.585786 6.25 1H7.75ZM18.9711 15L19.7206 15.0257L18.9711 15ZM13 20.9711L13.0257 21.7206L13 20.9711ZM10 20.25C8.10843 20.25 6.74999 20.249 5.69804 20.135C4.66013 20.0225 4.00992 19.8074 3.50191 19.4383L2.62023 20.6518C3.42656 21.2377 4.37094 21.5 5.53648 21.6263C6.68798 21.751 8.14184 21.75 10 21.75V20.25ZM0.25 12C0.25 13.8582 0.248971 15.312 0.373728 16.4635C0.500006 17.6291 0.762324 18.5734 1.34815 19.3798L2.56168 18.4981C2.19259 17.9901 1.97745 17.3399 1.865 16.302C1.75103 15.25 1.75 13.8916 1.75 12H0.25ZM3.50191 19.4383C3.14111 19.1762 2.82382 18.8589 2.56168 18.4981L1.34815 19.3798C1.70281 19.8679 2.13209 20.2972 2.62023 20.6518L3.50191 19.4383ZM17.4383 18.4981C17.1762 18.8589 16.8589 19.1762 16.4981 19.4383L17.3798 20.6518C17.8679 20.2972 18.2972 19.8679 18.6518 19.3798L17.4383 18.4981ZM19.75 12C19.75 10.1418 19.751 8.68798 19.6263 7.53648C19.5 6.37094 19.2377 5.42656 18.6518 4.62023L17.4383 5.50191C17.8074 6.00992 18.0225 6.66013 18.135 7.69804C18.249 8.74999 18.25 10.1084 18.25 12H19.75ZM16.4981 4.56168C16.8589 4.82382 17.1762 5.14111 17.4383 5.50191L18.6518 4.62023C18.2972 4.13209 17.8679 3.70281 17.3798 3.34815L16.4981 4.56168ZM1.75 12C1.75 10.1084 1.75103 8.74999 1.865 7.69804C1.97745 6.66013 2.19259 6.00992 2.56168 5.50191L1.34815 4.62023C0.762324 5.42656 0.500006 6.37094 0.373728 7.53648C0.248971 8.68798 0.25 10.1418 0.25 12H1.75ZM2.62023 3.34815C2.13209 3.70281 1.70281 4.13209 1.34815 4.62023L2.56168 5.50191C2.82382 5.14111 3.14111 4.82382 3.50191 4.56168L2.62023 3.34815ZM17.1005 14.3208C14.6401 14.7105 12.7105 16.6401 12.3208 19.1005L13.8023 19.3352C14.0904 17.5166 15.5166 16.0904 17.3352 15.8023L17.1005 14.3208ZM7.75 4V3.02893H6.25V4H7.75ZM7.75 3.02893V1H6.25V3.02893H7.75ZM10 2.25C8.83522 2.25 7.83424 2.24991 6.97432 2.27937L7.02568 3.77849C7.85445 3.75009 8.82692 3.75 10 3.75V2.25ZM6.97432 2.27937C5.10087 2.34356 3.7239 2.5463 2.62023 3.34815L3.50191 4.56168C4.20746 4.04907 5.17075 3.84204 7.02568 3.77849L6.97432 2.27937ZM13.75 4V3.02893H12.25V4H13.75ZM13.75 3.02893V1H12.25V3.02893H13.75ZM10 3.75C11.1731 3.75 12.1456 3.75009 12.9743 3.77849L13.0257 2.27937C12.1658 2.24991 11.1648 2.25 10 2.25V3.75ZM12.9743 3.77849C14.8292 3.84204 15.7925 4.04907 16.4981 4.56168L17.3798 3.34815C16.2761 2.5463 14.8991 2.34356 13.0257 2.27937L12.9743 3.77849ZM18.9711 14.25C18.0888 14.25 17.5579 14.2484 17.1005 14.3208L17.3352 15.8023C17.647 15.7529 18.0338 15.75 18.9711 15.75L18.9711 14.25ZM18.25 12C18.25 13.1731 18.2499 14.1456 18.2215 14.9743L19.7206 15.0257C19.7501 14.1658 19.75 13.1648 19.75 12H18.25ZM18.2215 14.9743C18.158 16.8292 17.9509 17.7925 17.4383 18.4981L18.6518 19.3798C19.4537 18.2761 19.6564 16.8991 19.7206 15.0257L18.2215 14.9743ZM13.75 20.9711C13.75 20.0338 13.7529 19.647 13.8023 19.3352L12.3208 19.1005C12.2484 19.5579 12.25 20.0888 12.25 20.9711L13.75 20.9711ZM10 21.75C11.1648 21.75 12.1658 21.7501 13.0257 21.7206L12.9743 20.2215C12.1456 20.2499 11.1731 20.25 10 20.25V21.75ZM13.0257 21.7206C14.8991 21.6564 16.2761 21.4537 17.3798 20.6518L16.4981 19.4383C15.7925 19.9509 14.8292 20.158 12.9743 20.2215L13.0257 21.7206Z" fill="#111111"/>
<path d="M6.00098 8.00049C6.00098 8.55277 5.55326 9.00049 5.00098 9.00049C4.44869 9.00049 4.00098 8.55277 4.00098 8.00049C4.00098 7.4482 4.44869 7.00049 5.00098 7.00049C5.55326 7.00049 6.00098 7.4482 6.00098 8.00049Z" fill="#111111"/>
<path d="M6.00098 12.0005C6.00098 12.5528 5.55326 13.0005 5.00098 13.0005C4.44869 13.0005 4.00098 12.5528 4.00098 12.0005C4.00098 11.4482 4.44869 11.0005 5.00098 11.0005C5.55326 11.0005 6.00098 11.4482 6.00098 12.0005Z" fill="#111111"/>
<path d="M11.001 8.00049C11.001 8.55277 10.5533 9.00049 10.001 9.00049C9.44869 9.00049 9.00098 8.55277 9.00098 8.00049C9.00098 7.4482 9.44869 7.00049 10.001 7.00049C10.5533 7.00049 11.001 7.4482 11.001 8.00049Z" fill="#111111"/>
<path d="M11.001 12.0005C11.001 12.5528 10.5533 13.0005 10.001 13.0005C9.44869 13.0005 9.00098 12.5528 9.00098 12.0005C9.00098 11.4482 9.44869 11.0005 10.001 11.0005C10.5533 11.0005 11.001 11.4482 11.001 12.0005Z" fill="#111111"/>
<path d="M11.001 16.0005C11.001 16.5528 10.5533 17.0005 10.001 17.0005C9.44869 17.0005 9.00098 16.5528 9.00098 16.0005C9.00098 15.4482 9.44869 15.0005 10.001 15.0005C10.5533 15.0005 11.001 15.4482 11.001 16.0005Z" fill="#111111"/>
<path d="M16.001 8.00049C16.001 8.55277 15.5533 9.00049 15.001 9.00049C14.4487 9.00049 14.001 8.55277 14.001 8.00049C14.001 7.4482 14.4487 7.00049 15.001 7.00049C15.5533 7.00049 16.001 7.4482 16.001 8.00049Z" fill="#111111"/>
<path d="M16.001 12.0005C16.001 12.5528 15.5533 13.0005 15.001 13.0005C14.4487 13.0005 14.001 12.5528 14.001 12.0005C14.001 11.4482 14.4487 11.0005 15.001 11.0005C15.5533 11.0005 16.001 11.4482 16.001 12.0005Z" fill="#111111"/>
<path d="M6.00098 16.0005C6.00098 16.5528 5.55326 17.0005 5.00098 17.0005C4.44869 17.0005 4.00098 16.5528 4.00098 16.0005C4.00098 15.4482 4.44869 15.0005 5.00098 15.0005C5.55326 15.0005 6.00098 15.4482 6.00098 16.0005Z" fill="#111111"/>
</svg>
