<svg width="20" height="20" viewBox="0 0 20 20" fill="none" xmlns="http://www.w3.org/2000/svg">
<path d="M2.7629 1.66264C2.83363 1.59191 2.869 1.55655 2.90015 1.52792C3.6662 0.824026 4.84368 0.824026 5.60972 1.52792C5.64088 1.55655 5.67624 1.59191 5.74697 1.66264L7.20686 3.12253C8.00985 3.92552 8.2395 5.13817 7.78574 6.17916C7.33197 7.22016 7.56162 8.4328 8.36461 9.23579L10.7642 11.6354C11.5672 12.4384 12.7798 12.668 13.8208 12.2143C14.8618 11.7605 16.0745 11.9902 16.8775 12.7931L18.3374 14.253C18.4081 14.3238 18.4434 14.3591 18.4721 14.3903C19.176 15.1563 19.176 16.3338 18.4721 17.0998C18.4434 17.131 18.4081 17.1664 18.3374 17.2371L17.45 18.1245C16.7273 18.8471 15.6856 19.1505 14.688 18.9288C7.89049 17.4182 2.58179 12.1095 1.07123 5.31201C0.84954 4.31439 1.15289 3.27265 1.87553 2.55002L2.7629 1.66264Z" stroke="#111111" stroke-width="1.5"/>
</svg>
