<svg width="90" height="90" viewBox="0 0 90 90" fill="none" xmlns="http://www.w3.org/2000/svg">
<circle cx="45" cy="45" r="40" fill="#CC6B0B" stroke="#F7F7F7" stroke-width="10"/>
<path d="M59.6496 26.625H37.3281C37.1541 26.625 36.9872 26.6941 36.8641 26.8172C36.741 26.9403 36.6719 27.1072 36.6719 27.2812C36.6719 27.4553 36.741 27.6222 36.8641 27.7453C36.9872 27.8684 37.1541 27.9375 37.3281 27.9375H59.6496C60.2893 27.9382 60.9026 28.1925 61.3549 28.6448C61.8073 29.0971 62.0617 29.7104 62.0625 30.3501V52.6722C62.0625 52.8462 62.1316 53.0131 62.2547 53.1362C62.3778 53.2593 62.5447 53.3284 62.7187 53.3284C62.8928 53.3284 63.0597 53.2593 63.1828 53.1362C63.3058 53.0131 63.375 52.8462 63.375 52.6722V30.3501C63.3738 29.3624 62.9809 28.4156 62.2825 27.7172C61.5841 27.0189 60.6372 26.6261 59.6496 26.625Z" fill="white"/>
<path d="M60.1145 56.1171C60.0536 56.0562 59.9813 56.0079 59.9016 55.9749C59.822 55.9419 59.7367 55.9249 59.6505 55.9249C59.5644 55.9249 59.479 55.9419 59.3994 55.9749C59.3198 56.0079 59.2475 56.0562 59.1866 56.1171C59.1256 56.1781 59.0773 56.2504 59.0443 56.33C59.0113 56.4096 58.9944 56.495 58.9944 56.5811C58.9944 56.6673 59.0113 56.7526 59.0443 56.8322C59.0773 56.9118 59.1256 56.9842 59.1866 57.0451L61.1354 58.9937H33.4198C32.7802 58.9929 32.167 58.7384 31.7148 58.2862C31.2626 57.8339 31.0082 57.2207 31.0075 56.5811V28.8655L32.9558 30.814C33.0788 30.9371 33.2457 31.0062 33.4198 31.0062C33.5938 31.0062 33.7607 30.9371 33.8838 30.814C34.0068 30.691 34.0759 30.5241 34.0759 30.35C34.0759 30.176 34.0068 30.0091 33.8838 29.886L30.8153 26.8173C30.7544 26.7563 30.682 26.708 30.6024 26.675C30.5228 26.642 30.4375 26.625 30.3513 26.625C30.2651 26.625 30.1798 26.642 30.1002 26.675C30.0206 26.708 29.9482 26.7563 29.8873 26.8173L26.8182 29.886C26.6964 30.0094 26.6284 30.1759 26.6289 30.3492C26.6295 30.5225 26.6985 30.6885 26.8211 30.8111C26.9436 30.9336 27.1097 31.0027 27.283 31.0033C27.4563 31.0038 27.6228 30.9358 27.7461 30.814L29.695 28.8654V56.5811C29.6961 57.5687 30.0888 58.5155 30.7871 59.2139C31.4854 59.9122 32.4322 60.305 33.4198 60.3062H61.1354L59.1866 62.2548C59.125 62.3156 59.0761 62.3879 59.0426 62.4677C59.0091 62.5475 58.9917 62.6331 58.9914 62.7196C58.9912 62.8061 59.008 62.8918 59.041 62.9718C59.074 63.0518 59.1225 63.1245 59.1836 63.1856C59.2448 63.2468 59.3175 63.2953 59.3975 63.3283C59.4775 63.3613 59.5632 63.3781 59.6497 63.3778C59.7362 63.3775 59.8218 63.3602 59.9016 63.3267C59.9814 63.2932 60.0537 63.2443 60.1145 63.1827L63.1836 60.1139C63.2446 60.053 63.2929 59.9807 63.3259 59.9011C63.3589 59.8214 63.3759 59.7361 63.3759 59.6499C63.3759 59.5638 63.3589 59.4784 63.3259 59.3988C63.2929 59.3192 63.2446 59.2469 63.1836 59.1859L60.1145 56.1171Z" fill="white"/>
<path d="M38.3027 37.2859C38.2165 37.2859 38.1312 37.3028 38.0516 37.3358C37.9719 37.3688 37.8996 37.4171 37.8386 37.478C37.7777 37.539 37.7294 37.6113 37.6964 37.691C37.6634 37.7706 37.6465 37.856 37.6465 37.9421V50.6839C37.6465 50.8579 37.7156 51.0249 37.8387 51.1479C37.9618 51.271 38.1287 51.3401 38.3027 51.3401C38.4768 51.3401 38.6437 51.271 38.7668 51.1479C38.8898 51.0249 38.959 50.8579 38.959 50.6839V41.1907C38.96 40.6275 39.1844 40.0877 39.583 39.6897C39.9816 39.2918 40.5218 39.0684 41.0851 39.0684C41.6483 39.0684 42.1885 39.2918 42.5871 39.6897C42.9857 40.0877 43.2102 40.6275 43.2112 41.1907V50.6839C43.2112 50.8579 43.2803 51.0249 43.4034 51.1479C43.5264 51.271 43.6934 51.3401 43.8674 51.3401C44.0414 51.3401 44.2084 51.271 44.3314 51.1479C44.4545 51.0249 44.5237 50.8579 44.5237 50.6839V41.1907C44.5246 40.6275 44.7491 40.0877 45.1477 39.6897C45.5463 39.2918 46.0865 39.0684 46.6497 39.0684C47.213 39.0684 47.7532 39.2918 48.1518 39.6897C48.5504 40.0877 48.7748 40.6275 48.7758 41.1907V50.6839C48.7758 50.8579 48.845 51.0249 48.968 51.1479C49.0911 51.271 49.258 51.3401 49.4321 51.3401C49.6061 51.3401 49.773 51.271 49.8961 51.1479C50.0192 51.0249 50.0883 50.8579 50.0883 50.6839V41.1907C50.09 40.4634 49.8605 39.7543 49.4329 39.166C49.0054 38.5776 48.4018 38.1403 47.7095 37.9173C47.0172 37.6943 46.272 37.6971 45.5814 37.9253C44.8908 38.1535 44.2906 38.5953 43.8674 39.1869C43.5993 38.8076 43.2562 38.4874 42.8593 38.2461C42.4624 38.0048 42.0202 37.8475 41.5601 37.784C41.1 37.7205 40.6317 37.7521 40.1843 37.8768C39.7369 38.0016 39.3198 38.2169 38.959 38.5093V37.9421C38.959 37.856 38.942 37.7706 38.9091 37.691C38.8761 37.6113 38.8278 37.539 38.7668 37.4781C38.7059 37.4171 38.6335 37.3688 38.5539 37.3358C38.4743 37.3028 38.3889 37.2859 38.3027 37.2859Z" fill="white"/>
<path d="M56.9934 37.5937C57.2808 37.1708 57.4346 36.6714 57.435 36.1601C57.4355 35.8207 57.3691 35.4845 57.2396 35.1708C57.1101 34.8571 56.92 34.572 56.6803 34.3319C56.4405 34.0917 56.1557 33.9011 55.8422 33.7711C55.5287 33.6411 55.1926 33.5742 54.8532 33.5742C54.5138 33.5742 54.1778 33.6411 53.8643 33.7711C53.5508 33.9011 53.266 34.0917 53.0262 34.3319C52.7864 34.572 52.5963 34.8571 52.4668 35.1708C52.3373 35.4845 52.2709 35.8207 52.2715 36.1601C52.2715 36.3341 52.3406 36.501 52.4637 36.6241C52.5868 36.7472 52.7537 36.8163 52.9277 36.8163C53.1018 36.8163 53.2687 36.7472 53.3918 36.6241C53.5148 36.501 53.584 36.3341 53.584 36.1601C53.5836 35.9932 53.6162 35.8278 53.6798 35.6735C53.7434 35.5192 53.8368 35.3789 53.9547 35.2607C54.0726 35.1426 54.2127 35.0488 54.3668 34.9848C54.521 34.9209 54.6863 34.8879 54.8532 34.8879C55.0202 34.8879 55.1854 34.9209 55.3396 34.9848C55.4938 35.0488 55.6338 35.1426 55.7517 35.2607C55.8696 35.3789 55.9631 35.5192 56.0267 35.6735C56.0903 35.8278 56.1229 35.9932 56.1225 36.1601C56.123 36.4001 56.0533 36.635 55.9219 36.8359L52.8521 40.1309C52.7306 40.2606 52.6497 40.423 52.6193 40.5981C52.5889 40.7731 52.6103 40.9533 52.6809 41.1164C52.7515 41.2794 52.8682 41.4183 53.0167 41.5159C53.1652 41.6135 53.339 41.6656 53.5167 41.6658H56.7178C56.8919 41.6658 57.0588 41.5966 57.1819 41.4736C57.3049 41.3505 57.3741 41.1836 57.3741 41.0095C57.3741 40.8355 57.3049 40.6686 57.1819 40.5455C57.0588 40.4224 56.8919 40.3533 56.7178 40.3533H54.4453L56.7967 37.8526C56.814 37.834 56.9934 37.5937 56.9934 37.5937Z" fill="white"/>
</svg>
