<svg width="20" height="20" viewBox="0 0 20 20" fill="none" xmlns="http://www.w3.org/2000/svg">
<path d="M10 0C4.47723 0 0 4.47723 0 10C0 15.5228 4.47723 20 10 20C15.5228 20 20 15.5228 20 10C19.9939 4.47968 15.5203 0.00610352 10 0ZM10 18.9999C5.02945 18.9999 1.00006 14.9706 1.00006 10C1.00006 5.02945 5.02945 1.00006 10 1.00006C14.9706 1.00006 18.9999 5.02945 18.9999 10C18.9943 14.9681 14.9681 18.9943 10 18.9999Z" fill="#CC6B0B"/>
<path d="M11.4999 14.5H10.5V8.00003C10.5 7.72385 10.2762 7.5 9.99997 7.5H8.99991C8.72388 7.5 8.50003 7.72385 8.50003 8.00003C8.50003 8.27621 8.72388 8.49991 8.99991 8.49991H9.49994V14.5H8.49988C8.22385 14.5 8 14.7238 8 14.9998C8 15.276 8.22385 15.4999 8.49988 15.4999H11.4999C11.7761 15.4999 11.9999 15.276 11.9999 14.9998C11.9999 14.7238 11.7761 14.5 11.4999 14.5Z" fill="#CC6B0B"/>
<path d="M11.0001 5C11.0001 5.55222 10.5523 5.99991 10.0001 5.99991C9.44785 5.99991 9 5.55222 9 5C9 4.44763 9.44785 3.99994 10.0001 3.99994C10.5523 3.99994 11.0001 4.44763 11.0001 5Z" fill="#CC6B0B"/>
</svg>
