<svg width="25" height="25" viewBox="0 0 25 25" fill="none" xmlns="http://www.w3.org/2000/svg">
<path d="M2.70637 0.796832C2.86167 0.589691 2.81962 0.295878 2.61248 0.140605C2.40534 -0.0146918 2.11155 0.0273549 1.95625 0.234496L0.374924 2.34387C0.250025 2.51049 0.250025 2.73957 0.374924 2.90621L1.95625 5.01558C2.11155 5.22272 2.40534 5.26475 2.61248 5.10947C2.81962 4.95417 2.86167 4.66039 2.70637 4.45325L1.68724 3.09378H16.1836L15.1094 4.44237C14.9481 4.64485 14.9815 4.93976 15.184 5.10106C15.3865 5.26235 15.6814 5.22896 15.8427 5.02646L17.5229 2.91708C17.659 2.74618 17.659 2.50388 17.5229 2.333L15.8427 0.223621C15.6814 0.0211205 15.3865 -0.0123012 15.184 0.148996C14.9815 0.310293 14.9481 0.605207 15.1094 0.807707L16.1836 2.15628H1.68724L2.70637 0.796832Z" fill="#CC6B0B"/>
<path fill-rule="evenodd" clip-rule="evenodd" d="M0.28125 7.42971C0.28125 6.91195 0.700992 6.49221 1.21875 6.49221H16.8047C17.3224 6.49221 17.7422 6.91195 17.7422 7.42971V23.25C17.7422 23.7677 17.3224 24.1875 16.8047 24.1875H1.21875C0.700992 24.1875 0.28125 23.7677 0.28125 23.25V7.42971ZM16.8047 7.42971H1.21875V23.25H16.8047V7.42971Z" fill="#CC6B0B"/>
<path d="M19.3593 21.8562C19.5146 21.6492 19.8084 21.607 20.0156 21.7624L21.375 22.7815V8.28518L20.0265 9.35934C19.824 9.52064 19.529 9.48724 19.3678 9.28474C19.2065 9.08224 19.2399 8.78733 19.4424 8.62603L21.5518 6.94587C21.7226 6.80974 21.965 6.80974 22.1358 6.94587L24.2452 8.62603C24.4477 8.78733 24.4812 9.08224 24.3197 9.28474C24.1585 9.48724 23.8636 9.52064 23.6611 9.35934L22.3125 8.28518V22.7815L23.6719 21.7624C23.8791 21.607 24.173 21.6492 24.3282 21.8562C24.4835 22.0634 24.4414 22.3573 24.2344 22.5124L22.125 24.0938C21.9584 24.2187 21.7292 24.2187 21.5625 24.0938L19.4532 22.5124C19.2461 22.3573 19.2041 22.0634 19.3593 21.8562Z" fill="#CC6B0B"/>
</svg>
