<svg width="30" height="30" viewBox="0 0 30 30" fill="none" xmlns="http://www.w3.org/2000/svg">
<path d="M25.4634 1.875H9.51953C9.39521 1.875 9.27598 1.92439 9.18807 2.01229C9.10017 2.1002 9.05078 2.21943 9.05078 2.34375C9.05078 2.46807 9.10017 2.5873 9.18807 2.67521C9.27598 2.76311 9.39521 2.8125 9.51953 2.8125H25.4634C25.9204 2.81297 26.3584 2.99467 26.6815 3.31773C27.0046 3.6408 27.1864 4.07884 27.1869 4.53575V20.4801C27.1869 20.6044 27.2363 20.7237 27.3242 20.8116C27.4121 20.8995 27.5313 20.9489 27.6557 20.9489C27.78 20.9489 27.8992 20.8995 27.9871 20.8116C28.075 20.7237 28.1244 20.6044 28.1244 20.4801V4.53575C28.1236 3.8303 27.8429 3.15399 27.3441 2.65518C26.8452 2.15637 26.1689 1.87579 25.4634 1.875Z" fill="#CC6B0B"/>
<path d="M25.7955 22.9408C25.752 22.8973 25.7003 22.8628 25.6434 22.8392C25.5866 22.8157 25.5256 22.8035 25.4641 22.8035C25.4025 22.8035 25.3416 22.8157 25.2847 22.8392C25.2278 22.8628 25.1762 22.8973 25.1327 22.9408C25.0891 22.9844 25.0546 23.036 25.0311 23.0929C25.0075 23.1497 24.9954 23.2107 24.9954 23.2722C24.9954 23.3338 25.0075 23.3947 25.0311 23.4516C25.0546 23.5085 25.0891 23.5601 25.1327 23.6037L26.5247 24.9955H6.72781C6.27097 24.9949 5.83301 24.8132 5.50999 24.4901C5.18698 24.1671 5.00529 23.7291 5.00479 23.2722V3.4754L6.39639 4.86717C6.48429 4.95507 6.60351 5.00445 6.72781 5.00445C6.85212 5.00445 6.97134 4.95507 7.05923 4.86717C7.14713 4.77927 7.19651 4.66006 7.19651 4.53575C7.19651 4.41145 7.14713 4.29223 7.05923 4.20433L4.86746 2.01235C4.82395 1.96881 4.77228 1.93427 4.71541 1.91071C4.65855 1.88714 4.5976 1.87502 4.53604 1.87502C4.47449 1.87502 4.41353 1.88714 4.35667 1.91071C4.2998 1.93427 4.24814 1.96881 4.20462 2.01235L2.0124 4.20433C1.92542 4.29242 1.87681 4.41134 1.8772 4.53513C1.87759 4.65893 1.92693 4.77754 2.01447 4.86508C2.102 4.95262 2.22062 5.00197 2.34441 5.00236C2.46821 5.00276 2.58713 4.95416 2.67522 4.86717L4.06729 3.47529V23.2722C4.06804 23.9777 4.34858 24.654 4.84735 25.1528C5.34613 25.6516 6.02241 25.9322 6.72781 25.933H26.5247L25.1327 27.3248C25.0887 27.3683 25.0537 27.42 25.0298 27.4769C25.0059 27.5339 24.9935 27.5951 24.9933 27.6569C24.9931 27.7187 25.0051 27.7799 25.0287 27.837C25.0523 27.8942 25.0869 27.9461 25.1306 27.9898C25.1743 28.0335 25.2262 28.0681 25.2833 28.0916C25.3405 28.1152 25.4017 28.1272 25.4635 28.127C25.5253 28.1268 25.5864 28.1144 25.6434 28.0905C25.7004 28.0666 25.7521 28.0316 25.7955 27.9877L27.9877 25.7957C28.0313 25.7522 28.0658 25.7005 28.0894 25.6436C28.1129 25.5868 28.125 25.5258 28.125 25.4642C28.125 25.4027 28.1129 25.3417 28.0894 25.2849C28.0658 25.228 28.0313 25.1763 27.9877 25.1328L25.7955 22.9408Z" fill="#CC6B0B"/>
<path d="M10.2168 9.4899C10.1552 9.48988 10.0943 9.502 10.0374 9.52555C9.98051 9.5491 9.92883 9.58362 9.8853 9.62716C9.84177 9.67069 9.80725 9.72237 9.78369 9.77925C9.76014 9.83613 9.74803 9.89709 9.74805 9.95865V19.0599C9.74805 19.1842 9.79743 19.3034 9.88534 19.3914C9.97325 19.4793 10.0925 19.5286 10.2168 19.5286C10.3411 19.5286 10.4603 19.4793 10.5483 19.3914C10.6362 19.3034 10.6855 19.1842 10.6855 19.0599V12.2791C10.6863 11.8767 10.8466 11.4912 11.1313 11.2069C11.416 10.9227 11.8019 10.7631 12.2042 10.7631C12.6065 10.7631 12.9923 10.9227 13.2771 11.2069C13.5618 11.4912 13.7221 11.8767 13.7228 12.2791V19.0599C13.7228 19.1842 13.7722 19.3035 13.8601 19.3914C13.948 19.4793 14.0672 19.5287 14.1916 19.5287C14.3159 19.5287 14.4351 19.4793 14.523 19.3914C14.6109 19.3035 14.6603 19.1842 14.6603 19.0599V12.2791C14.661 11.8767 14.8213 11.4912 15.106 11.2069C15.3908 10.9227 15.7766 10.7631 16.1789 10.7631C16.5812 10.7631 16.9671 10.9227 17.2518 11.2069C17.5366 11.4912 17.6969 11.8767 17.6976 12.2791V19.0599C17.6976 19.1842 17.747 19.3035 17.8349 19.3914C17.9228 19.4793 18.042 19.5287 18.1663 19.5287C18.2906 19.5287 18.4099 19.4793 18.4978 19.3914C18.5857 19.3035 18.6351 19.1842 18.6351 19.0599V12.2791C18.6363 11.7595 18.4723 11.2531 18.1669 10.8328C17.8615 10.4125 17.4304 10.1002 16.9359 9.94093C16.4415 9.78164 15.9091 9.78364 15.4158 9.94664C14.9225 10.1096 14.4938 10.4252 14.1916 10.8477C14.0001 10.5768 13.755 10.3481 13.4715 10.1758C13.188 10.0034 12.8721 9.89105 12.5435 9.84568C12.2148 9.80032 11.8804 9.82289 11.5608 9.91201C11.2412 10.0011 10.9433 10.1549 10.6855 10.3638V9.95865C10.6856 9.89709 10.6734 9.83613 10.6499 9.77925C10.6263 9.72237 10.5918 9.67069 10.5483 9.62716C10.5048 9.58363 10.4531 9.5491 10.3962 9.52555C10.3393 9.502 10.2784 9.48988 10.2168 9.4899Z" fill="#CC6B0B"/>
<path d="M23.5662 9.70985C23.7714 9.40777 23.8813 9.05105 23.8816 8.68584C23.882 8.44342 23.8345 8.2033 23.742 7.97923C23.6495 7.75515 23.5138 7.55151 23.3425 7.37996C23.1712 7.2084 22.9678 7.07231 22.7439 6.97945C22.5199 6.88659 22.2799 6.83879 22.0375 6.83879C21.795 6.83879 21.555 6.88659 21.3311 6.97945C21.1071 7.07231 20.9037 7.2084 20.7324 7.37996C20.5612 7.55151 20.4254 7.75515 20.3329 7.97923C20.2404 8.2033 20.193 8.44342 20.1934 8.68584C20.1934 8.81016 20.2427 8.92938 20.3307 9.01729C20.4186 9.1052 20.5378 9.15459 20.6621 9.15459C20.7864 9.15459 20.9057 9.1052 20.9936 9.01729C21.0815 8.92938 21.1309 8.81016 21.1309 8.68584C21.1306 8.56661 21.1538 8.44849 21.1993 8.33826C21.2447 8.22803 21.3115 8.12784 21.3957 8.04344C21.4799 7.95903 21.5799 7.89207 21.69 7.84638C21.8002 7.80069 21.9182 7.77717 22.0375 7.77717C22.1567 7.77717 22.2748 7.80069 22.3849 7.84638C22.495 7.89207 22.595 7.95903 22.6793 8.04344C22.7635 8.12784 22.8302 8.22803 22.8756 8.33826C22.9211 8.44849 22.9443 8.56661 22.9441 8.68584C22.9445 8.85728 22.8946 9.02508 22.8008 9.16855L20.6081 11.5221C20.5213 11.6148 20.4635 11.7308 20.4418 11.8558C20.4201 11.9809 20.4354 12.1095 20.4858 12.226C20.5362 12.3425 20.6196 12.4417 20.7257 12.5114C20.8317 12.5812 20.9559 12.6184 21.0828 12.6185H23.3693C23.4936 12.6185 23.6129 12.5691 23.7008 12.4812C23.7887 12.3933 23.8381 12.274 23.8381 12.1497C23.8381 12.0254 23.7887 11.9062 23.7008 11.8183C23.6129 11.7304 23.4936 11.681 23.3693 11.681H21.7461L23.4256 9.89479C23.438 9.88151 23.5662 9.70985 23.5662 9.70985Z" fill="#CC6B0B"/>
</svg>
