<svg width="70" height="70" viewBox="0 0 70 70" fill="none" xmlns="http://www.w3.org/2000/svg">
<g filter="url(#filter0_bi_88_1393)">
<circle r="25" transform="matrix(-1 0 0 1 35 35)" fill="#EBAF7B"/>
<circle r="30" transform="matrix(-1 0 0 1 35 35)" stroke="#F7F7F7" stroke-width="10"/>
</g>
<path d="M50 36C50.5523 36 51 35.5523 51 35C51 34.4477 50.5523 34 50 34L50 36ZM19.2929 34.2929C18.9024 34.6834 18.9024 35.3166 19.2929 35.7071L25.6569 42.0711C26.0474 42.4616 26.6805 42.4616 27.0711 42.0711C27.4616 41.6805 27.4616 41.0474 27.0711 40.6569L21.4142 35L27.0711 29.3431C27.4616 28.9526 27.4616 28.3195 27.0711 27.9289C26.6805 27.5384 26.0474 27.5384 25.6569 27.9289L19.2929 34.2929ZM50 34L20 34L20 36L50 36L50 34Z" fill="#EBEBEB"/>
<defs>
<filter id="filter0_bi_88_1393" x="-90" y="-90" width="250" height="250" filterUnits="userSpaceOnUse" color-interpolation-filters="sRGB">
<feFlood flood-opacity="0" result="BackgroundImageFix"/>
<feGaussianBlur in="BackgroundImage" stdDeviation="45"/>
<feComposite in2="SourceAlpha" operator="in" result="effect1_backgroundBlur_88_1393"/>
<feBlend mode="normal" in="SourceGraphic" in2="effect1_backgroundBlur_88_1393" result="shape"/>
<feColorMatrix in="SourceAlpha" type="matrix" values="0 0 0 0 0 0 0 0 0 0 0 0 0 0 0 0 0 0 127 0" result="hardAlpha"/>
<feOffset dy="4"/>
<feGaussianBlur stdDeviation="10"/>
<feComposite in2="hardAlpha" operator="arithmetic" k2="-1" k3="1"/>
<feColorMatrix type="matrix" values="0 0 0 0 1 0 0 0 0 1 0 0 0 0 1 0 0 0 0.25 0"/>
<feBlend mode="normal" in2="shape" result="effect2_innerShadow_88_1393"/>
</filter>
</defs>
</svg>
