<svg width="22" height="20" viewBox="0 0 22 20" fill="none" xmlns="http://www.w3.org/2000/svg">
<path d="M3.92893 5.92893L3.3986 6.45926L3.92893 5.92893ZM2 4L2.53033 3.46967L2.51601 3.45535L2.50093 3.44182L2 4ZM20 4L20.5303 4.53033L20 4ZM18.0711 5.92894L18.6014 6.45927L18.0711 5.92894ZM3.06107 18.0451L3.50191 17.4383L3.06107 18.0451ZM1.95491 16.9389L2.56168 16.4981L1.95491 16.9389ZM20.0451 16.9389L19.4383 16.4981L20.0451 16.9389ZM18.9389 18.0451L18.4981 17.4383L18.9389 18.0451ZM18.9389 1.95491L18.4981 2.56168L18.9389 1.95491ZM20.0451 3.06107L19.4383 3.50191L20.0451 3.06107ZM3.06107 1.95491L3.50191 2.56168L3.06107 1.95491ZM1.95491 3.06107L1.34815 2.62023L1.95491 3.06107ZM1.60805 3.64824L0.929871 3.32797H0.929871L1.60805 3.64824ZM20.379 3.62103L21.0546 3.29546L20.379 3.62103ZM4.45926 5.3986L2.53033 3.46967L1.46967 4.53033L3.3986 6.45926L4.45926 5.3986ZM19.4697 3.46967L17.5407 5.3986L18.6014 6.45927L20.5303 4.53033L19.4697 3.46967ZM3.3986 6.45926C5.05028 8.11094 6.34126 9.40417 7.48288 10.2752C8.64181 11.1594 9.73455 11.6789 11 11.6789V10.1789C10.1944 10.1789 9.41825 9.8651 8.39275 9.08267C7.34994 8.28703 6.14092 7.08026 4.45926 5.3986L3.3986 6.45926ZM17.5407 5.3986C15.8591 7.08026 14.6501 8.28703 13.6072 9.08267C12.5817 9.8651 11.8056 10.1789 11 10.1789V11.6789C12.2655 11.6789 13.3582 11.1594 14.5171 10.2752C15.6587 9.40417 16.9497 8.11094 18.6014 6.45927L17.5407 5.3986ZM10 1.75H12V0.25H10V1.75ZM12 18.25H10V19.75H12V18.25ZM10 18.25C8.10843 18.25 6.74999 18.249 5.69804 18.135C4.66013 18.0225 4.00992 17.8074 3.50191 17.4383L2.62023 18.6518C3.42656 19.2377 4.37094 19.5 5.53648 19.6263C6.68798 19.751 8.14184 19.75 10 19.75V18.25ZM0.25 10C0.25 11.8582 0.248971 13.312 0.373728 14.4635C0.500006 15.6291 0.762324 16.5734 1.34815 17.3798L2.56168 16.4981C2.19259 15.9901 1.97745 15.3399 1.865 14.302C1.75103 13.25 1.75 11.8916 1.75 10H0.25ZM3.50191 17.4383C3.14111 17.1762 2.82382 16.8589 2.56168 16.4981L1.34815 17.3798C1.70281 17.8679 2.13209 18.2972 2.62023 18.6518L3.50191 17.4383ZM20.25 10C20.25 11.8916 20.249 13.25 20.135 14.302C20.0225 15.3399 19.8074 15.9901 19.4383 16.4981L20.6518 17.3798C21.2377 16.5734 21.5 15.6291 21.6263 14.4635C21.751 13.312 21.75 11.8582 21.75 10H20.25ZM12 19.75C13.8582 19.75 15.312 19.751 16.4635 19.6263C17.6291 19.5 18.5734 19.2377 19.3798 18.6518L18.4981 17.4383C17.9901 17.8074 17.3399 18.0225 16.302 18.135C15.25 18.249 13.8916 18.25 12 18.25V19.75ZM19.4383 16.4981C19.1762 16.8589 18.8589 17.1762 18.4981 17.4383L19.3798 18.6518C19.8679 18.2972 20.2972 17.8679 20.6518 17.3798L19.4383 16.4981ZM12 1.75C13.8916 1.75 15.25 1.75103 16.302 1.865C17.3399 1.97745 17.9901 2.19259 18.4981 2.56168L19.3798 1.34815C18.5734 0.762324 17.6291 0.500006 16.4635 0.373728C15.312 0.248971 13.8582 0.25 12 0.25V1.75ZM18.4981 2.56168C18.8589 2.82382 19.1762 3.14111 19.4383 3.50191L20.6518 2.62023C20.2972 2.13209 19.8679 1.70281 19.3798 1.34815L18.4981 2.56168ZM10 0.25C8.14184 0.25 6.68798 0.248971 5.53648 0.373728C4.37094 0.500006 3.42656 0.762324 2.62023 1.34815L3.50191 2.56168C4.00992 2.19259 4.66013 1.97745 5.69804 1.865C6.74999 1.75103 8.10843 1.75 10 1.75V0.25ZM2.62023 1.34815C2.13209 1.70281 1.70281 2.13209 1.34815 2.62023L2.56168 3.50191C2.82382 3.14111 3.14111 2.82382 3.50191 2.56168L2.62023 1.34815ZM1.75 10C1.75 8.37645 1.75047 7.14244 1.82395 6.15274C1.89731 5.16454 2.03996 4.48997 2.28622 3.96852L0.929871 3.32797C0.568083 4.09404 0.40671 4.98237 0.328064 6.04168C0.24953 7.09949 0.25 8.3976 0.25 10H1.75ZM2.28622 3.96852C2.36553 3.80058 2.45659 3.64656 2.56168 3.50191L1.34815 2.62023C1.18647 2.84277 1.04801 3.07781 0.929871 3.32797L2.28622 3.96852ZM2.50093 3.44182L2.10898 3.09006L1.10711 4.20642L1.49906 4.55818L2.50093 3.44182ZM21.75 10C21.75 8.38643 21.7505 7.08125 21.6702 6.01904C21.5899 4.95506 21.4248 4.06379 21.0546 3.29546L19.7033 3.9466C19.9541 4.46709 20.0996 5.14093 20.1745 6.13204C20.2495 7.12493 20.25 8.36482 20.25 10H21.75ZM21.0546 3.29546C20.9399 3.05734 20.8065 2.83304 20.6518 2.62023L19.4383 3.50191C19.5389 3.64031 19.6265 3.78722 19.7033 3.9466L21.0546 3.29546ZM20.5303 4.53033L20.9093 4.15136L19.8486 3.0907L19.4697 3.46967L20.5303 4.53033Z" fill="#111111"/>
</svg>
