<svg width="70" height="70" viewBox="0 0 70 70" fill="none" xmlns="http://www.w3.org/2000/svg">
<g filter="url(#filter0_bi_88_1390)">
<circle cx="35" cy="35" r="25" fill="#CC6B0B"/>
<circle cx="35" cy="35" r="25" fill="white" fill-opacity="0.1"/>
<circle cx="35" cy="35" r="30" stroke="#F7F7F7" stroke-width="10"/>
</g>
<path d="M20 36C19.4477 36 19 35.5523 19 35C19 34.4477 19.4477 34 20 34L20 36ZM50.7071 34.2929C51.0976 34.6834 51.0976 35.3166 50.7071 35.7071L44.3431 42.0711C43.9526 42.4616 43.3195 42.4616 42.9289 42.0711C42.5384 41.6805 42.5384 41.0474 42.9289 40.6569L48.5858 35L42.9289 29.3431C42.5384 28.9526 42.5384 28.3195 42.9289 27.9289C43.3195 27.5384 43.9526 27.5384 44.3431 27.9289L50.7071 34.2929ZM20 34L50 34L50 36L20 36L20 34Z" fill="white"/>
<defs>
<filter id="filter0_bi_88_1390" x="-90" y="-90" width="250" height="250" filterUnits="userSpaceOnUse" color-interpolation-filters="sRGB">
<feFlood flood-opacity="0" result="BackgroundImageFix"/>
<feGaussianBlur in="BackgroundImage" stdDeviation="45"/>
<feComposite in2="SourceAlpha" operator="in" result="effect1_backgroundBlur_88_1390"/>
<feBlend mode="normal" in="SourceGraphic" in2="effect1_backgroundBlur_88_1390" result="shape"/>
<feColorMatrix in="SourceAlpha" type="matrix" values="0 0 0 0 0 0 0 0 0 0 0 0 0 0 0 0 0 0 127 0" result="hardAlpha"/>
<feOffset dy="4"/>
<feGaussianBlur stdDeviation="10"/>
<feComposite in2="hardAlpha" operator="arithmetic" k2="-1" k3="1"/>
<feColorMatrix type="matrix" values="0 0 0 0 1 0 0 0 0 1 0 0 0 0 1 0 0 0 0.25 0"/>
<feBlend mode="normal" in2="shape" result="effect2_innerShadow_88_1390"/>
</filter>
</defs>
</svg>
