<svg width="24" height="24" viewBox="0 0 24 24" fill="none" xmlns="http://www.w3.org/2000/svg">
<path fill-rule="evenodd" clip-rule="evenodd" d="M11.9926 23.7938H11.9876C9.99725 23.7931 8.0415 23.2937 6.30446 22.3462L0 24L1.68718 17.8374C0.646444 16.0338 0.0988157 13.9879 0.0997082 11.8919C0.102317 5.33474 5.43735 0 11.9924 0C15.1739 0.00137308 18.1598 1.23989 20.4052 3.48784C22.6505 5.73568 23.8864 8.72361 23.8851 11.9013C23.8825 18.4569 18.5496 23.7911 11.9926 23.7938ZM6.59726 20.1935L6.95821 20.4078C8.47586 21.3084 10.2155 21.7849 11.9893 21.7856H11.9933C17.4414 21.7856 21.8756 17.3513 21.8778 11.9009C21.8788 9.25964 20.8517 6.77621 18.9854 4.90779C17.1192 3.03938 14.6374 2.00992 11.9972 2.009C6.54481 2.009 2.11052 6.44289 2.10836 11.8929C2.10759 13.7606 2.63018 15.5796 3.61966 17.1533L3.85468 17.5273L2.85611 21.1749L6.59726 20.1935ZM17.9845 14.7301C17.9102 14.6061 17.7121 14.5318 17.415 14.383C17.1178 14.2342 15.6569 13.5154 15.3844 13.4162C15.1121 13.3171 14.9139 13.2675 14.7158 13.5649C14.5178 13.8624 13.9483 14.5318 13.7749 14.7301C13.6016 14.9283 13.4282 14.9532 13.1312 14.8044C12.834 14.6557 11.8766 14.342 10.7415 13.3295C9.85812 12.5416 9.26174 11.5685 9.0884 11.271C8.91507 10.9735 9.06993 10.8128 9.21869 10.6646C9.35238 10.5314 9.51587 10.3174 9.66443 10.144C9.813 9.97049 9.86252 9.84645 9.96158 9.64827C10.0606 9.44986 10.0111 9.2764 9.93681 9.12765C9.86252 8.9789 9.26824 7.51623 9.02062 6.92123C8.77939 6.34179 8.53443 6.42028 8.35204 6.41113C8.1789 6.40243 7.98058 6.4006 7.78251 6.4006C7.58442 6.4006 7.26247 6.47498 6.99009 6.77248C6.71772 7.06998 5.95007 7.7889 5.95007 9.25145C5.95007 10.7141 7.01484 12.1271 7.16343 12.3254C7.312 12.5238 9.25879 15.5252 12.2397 16.8124C12.9487 17.1186 13.5022 17.3014 13.9338 17.4383C14.6456 17.6646 15.2935 17.6326 15.8054 17.5561C16.3764 17.4708 17.5635 16.8373 17.8112 16.1432C18.0587 15.4489 18.0587 14.854 17.9845 14.7301Z" fill="white"/>
</svg>
